# AST/ASF file generated using VICON BodyLanguage
# -----------------------------------------------
:version 1.10
:name VICON
:units
  mass 1.0
  length 0.45
  angle deg
:documentation
   .ast/.asf automatically generated from VICON data using
   VICON BodyBuilder and BodyLanguage model FoxedUp or BRILLIANT.MOD
:root
   order TX TY TZ RX RY RZ
   axis XYZ
   position 0 0 0  
   orientation 0 0 0 
:bonedata
  begin
     id 1 
     name lhipjoint
     direction 0.64773 -0.699417 0.302095 
     length 2.48597 
     axis 0 0 0  XYZ
  end
  begin
     id 2 
     name lfemur
     direction 0.34202 -0.939693 0  
     length 6.71947  
     axis 0 0 20  XYZ
    dof rx ry rz
    limits (-160.0 20.0)
           (-70.0 70.0)
           (-60.0 70.0)
  end
  begin
     id 3 
     name ltibia
     direction 0.34202 -0.939693 0   
     length 8.08777   
     axis 0 0 20   XYZ
    dof rx
    limits (-10.0 170.0)
  end
  begin
     id 4 
     name lfoot
     direction 0.0808503 -0.222134 0.971658   
     length 2.08264   
     axis -90 7.62852e-016 20   XYZ
    dof rx rz
    limits (-45.0 90.0)
           (-70.0 20.0)
  end
  begin
     id 5 
     name ltoes
     direction 1.53502e-011 -4.22007e-011 1   
     length 1.04662   
     axis -90 7.62852e-016 20   XYZ
    dof rx
    limits (-90.0 20.0)
  end
  begin
     id 6 
     name rhipjoint
     direction -0.610924 -0.726792 0.313919   
     length 2.39233  
     axis 0 0 0  XYZ 
  end
  begin
     id 7 
     name rfemur
     direction -0.34202 -0.939693 0   
     length 6.96955   
     axis 0 0 -20   XYZ
    dof rx ry rz
    limits (-160.0 20.0)
           (-70.0 70.0)
           (-70.0 60.0)
  end
  begin
     id 8 
     name rtibia
     direction -0.34202 -0.939693 0   
     length 8.19584   
     axis 0 0 -20   XYZ
    dof rx
    limits (-10.0 170.0)
 end
 begin
     id 9 
     name rfoot
     direction -0.077777 -0.213691 0.9738   
     length 2.07539  
     axis -90 -7.62852e-016 -20   XYZ
    dof rx rz
    limits (-45.0 90.0)
           (-20.0 70.0)
  end
  begin
     id 10 
     name rtoes
     direction -1.53558e-011 -4.22006e-011 1   
     length 1.04381   
     axis -90 -7.62852e-016 -20   XYZ
    dof rx
    limits (-90.0 20.0)
  end
  begin
     id 11 
     name lowerback
     direction -0.00971646 0.996074 0.0879841   
     length 1.67643   
     axis 0 0 0   XYZ
    dof rx ry rz
    limits (-20.0 45.0)
           (-30.0 30.0)
           (-30.0 30.0)
  end
  begin
     id 12 
     name upperback
     direction 0.0127391 0.991676 0.128127   
     length 1.63741   
     axis 0 0 0   XYZ
    dof rx ry rz
    limits (-20.0 45.0)
           (-30.0 30.0)
           (-30.0 30.0)
  end
  begin
     id 13 
     name thorax
     direction 0.0167583 0.996049 0.0872067   
     length 1.65931   
     axis 0 0 0   XYZ
    dof rx ry rz
    limits (-20.0 45.0)
           (-30.0 30.0)
           (-30.0 30.0)
  end
  begin
     id 14 
     name lowerneck
     direction -0.0317829 0.998312 0.0486079   
     length 1.79021   
     axis 0 0 0   XYZ
    dof rx ry rz
    limits (-20.0 45.0)
           (-30.0 30.0)
           (-30.0 30.0)
  end
  begin
     id 15 
     name upperneck
     direction 0.0896851 0.972452 -0.215159   
     length 1.78797   
     axis 0 0 0   XYZ
    dof rx ry rz
    limits (-20.0 45.0)
           (-30.0 30.0)
           (-30.0 30.0)
  end
  begin
     id 16
     name head
     direction 0.0310949 0.996503 -0.0775582  
     length 1.81549  
     axis 0 0 0   XYZ
    dof rx ry rz
    limits (-20.0 45.0)
           (-30.0 30.0)
           (-30.0 30.0)
  end
  begin
     id 17 
     name lclavicle
     direction 0.853638 0.502051 -0.138733  
     length 3.31627  
     axis 0 0 0   XYZ
    dof ry rz
    limits (-20.0 10.0)
           (0.0 20.0)
  end
  begin
     id 18 
     name lhumerus
     direction 1 -4.48962e-011 -1.41788e-018   
     length 5.54893   
     axis 180 -30 -90   XYZ
    dof rx ry rz
    limits (-60.0 90.0)
           (-90.0 90.0)
           (-90.0 90.0)
  end
  begin
     id 19
     name lradius
     direction 1 -4.48962e-011 -4.95754e-027   
     length 3.02898   
     axis 180 -30 -90   XYZ
    dof rx
    limits (-10.0 170.0)
  end
  begin
     id 20
     name lwrist
     direction 1 -4.48952e-011 -1.03764e-026   
     length 1.51449   
     axis 9.09556e-015 90 90   XYZ
    dof ry
    limits (-180.0 0.0)
 end
  begin
     id 21 
     name lhand
     direction 1 -4.4902e-011 -2.07528e-026   
     length 0.640951   
     axis 1.3242e-014 90 90   XYZ
    dof rx rz
    limits (-90.0 90.0)
           (-45.0 45.0)
  end
  begin
     id 22 
     name lfingers
     direction 1 -4.49014e-011 -4.15056e-026   
     length 0.516751   
     axis 2.64841e-014 90 90   XYZ
    dof rx
    limits (0.0 90.0)
  end
  begin
     id 23
     name lthumb
     direction 0.707107 -6.35008e-011 0.707107   
     length 0.741954   
     axis -90 45 2.85299e-015   XYZ
    dof rx rz
    limits (-45.0 45.0)
           (-45.0 45.0)
  end
  begin
     id 24 
     name rclavicle
     direction -0.888531 0.455324 -0.0565039   
     length 3.20126  
     axis 0 0 0   XYZ 
    dof ry rz
    limits (-10.0 20.0)
           (-20.0 0.0)
  end
  begin
     id 25 
     name rhumerus
     direction -1 -4.48946e-011 -8.98298e-028  
     length 5.3519   
     axis 180 30 90   XYZ
    dof rx ry rz
    limits (-90.0 60.0)
           (-90.0 90.0)
           (-90.0 90.0)
  end
  begin
     id 26 
     name rradius
     direction -1 -4.4899e-011 -3.18779e-027   
     length 3.02531   
     axis 180 30 90   XYZ
    dof rx
    limits (-10.0 170.0)
  end
  begin
     id 27 
     name rwrist
     direction -1 -4.4897e-011 -1.03764e-026   
     length 1.51266   
     axis 9.09556e-015 -90 -90   XYZ
    dof ry
    limits (-180.0 0.0)
  end
  begin
     id 28
     name rhand
     direction -1 -4.48941e-011 -2.07528e-026   
     length 0.78389   
     axis 1.3242e-014 -90 -90   XYZ
    dof rx rz
    limits (-90.0 90.0)
           (-45.0 45.0)
  end
  begin
     id 29
     name rfingers
     direction -1 -4.49012e-011 -4.15056e-026   
     length 0.631992   
     axis 2.64841e-014 -90 -90   XYZ
    dof rx
    limits (0.0 90.0)
  end
  begin
     id 30
     name rthumb
     direction -0.707107 -6.3496e-011 0.707107   
     length 0.907418   
     axis -90 -45 -2.85299e-015   XYZ
    dof rx rz
    limits (-45.0 45.0)
           (-45.0 45.0)
  end
:hierarchy
  begin
    root lhipjoint rhipjoint lowerback
    lhipjoint lfemur
    lfemur ltibia
    ltibia lfoot
    lfoot ltoes
    rhipjoint rfemur
    rfemur rtibia
    rtibia rfoot
    rfoot rtoes
    lowerback upperback
    upperback thorax
    thorax lowerneck lclavicle rclavicle
    lowerneck upperneck
    upperneck head
    lclavicle lhumerus
    lhumerus lradius
    lradius lwrist
    lwrist lhand lthumb
    lhand lfingers
    rclavicle rhumerus
    rhumerus rradius
    rradius rwrist
    rwrist rhand rthumb
    rhand rfingers
  end

#!OML:ASF E:\Style3\Style3.ASF
:FULLY-SPECIFIED
:DEGREES
1838
root 0.641653 17.7879 2.7923 -498.798 147.504 -534.872
lowerback 10.4709 -7.33394 2.53314
upperback -4.08374 -8.98616 5.243
thorax -9.7727 -4.31112 5.90824
lowerneck -5.55613 6.03552 1.75763
upperneck 3.83829 8.67447 -12.7551
head 2.70762 3.97434 -3.74674
rclavicle -7.07673e-014 -1.39149e-014
rhumerus 12.2143 17.7069 -84.6959
rradius 139.777
rwrist 20.0174
rhand -2.01146 21.9134
rfingers 7.12502
rthumb 23.6624 -6.65035
lclavicle -7.07673e-014 -1.39149e-014
lhumerus 7.08793 -8.48312 102.085
lradius 109.858
lwrist -1.40187
lhand 29.9082 49.2217
lfingers 7.12502
lthumb 53.6244 68.3105
rfemur -62.6448 25.1846 -15.5021
rtibia 23.3375
rfoot -8.42059 8.41242
rtoes -12.2178
lfemur -11.6301 5.95799 -19.2041
ltibia 3.81667e-014
lfoot 7.90628 16.401
ltoes -23.3708
1839
root 0.634188 17.7904 2.80701 -498.76 147.594 -534.803
lowerback 10.4723 -7.29552 2.48032
upperback -4.07326 -8.95265 5.14103
thorax -9.77196 -4.29527 5.82007
lowerneck -5.50011 6.06345 1.91584
upperneck 4.01078 8.72996 -12.929
head 2.76883 3.99317 -3.82083
rclavicle 4.40308e-014 -3.88624e-014
rhumerus 12.364 17.3972 -84.6986
rradius 139.685
rwrist 20.5341
rhand -1.83788 21.6305
rfingers 7.12502
rthumb 23.8289 -6.91158
lclavicle 4.40308e-014 -3.88624e-014
lhumerus 6.72638 -8.59718 101.783
lradius 109.869
lwrist -1.24435
lhand 29.3413 49.1516
lfingers 7.12502
lthumb 53.1138 68.5716
rfemur -62.6287 25.176 -15.5203
rtibia 23.3349
rfoot -8.3451 8.57134
rtoes -11.2381
lfemur -11.6427 5.83888 -19.2993
ltibia -2.22639e-014
lfoot 7.86762 16.949
ltoes -22.5122
1840
root 0.62175 17.7942 2.82395 -498.741 147.661 -534.733
lowerback 10.4671 -7.20487 2.39222
upperback -4.03056 -8.8569 5.01959
thorax -9.73318 -4.24901 5.71366
lowerneck -5.5723 6.046 2.01496
upperneck 4.2252 8.72787 -12.9786
head 2.85107 3.97991 -3.84709
rclavicle -2.99171e-014 -1.98785e-016
rhumerus 12.5597 16.8992 -84.6698
rradius 139.554
rwrist 20.9018
rhand -1.63411 21.2215
rfingers 7.12502
rthumb 24.0243 -7.29491
lclavicle -2.99171e-014 -1.98785e-016
lhumerus 6.52419 -8.85819 101.367
lradius 109.856
lwrist -0.778314
lhand 28.421 48.8503
lfingers 7.12502
lthumb 52.2819 68.787
rfemur -62.6217 25.1934 -15.5032
rtibia 23.3824
rfoot -8.31737 8.67008
rtoes -10.8935
lfemur -11.6447 5.70462 -19.3719
ltibia 2.8625e-014
lfoot 7.94181 17.4565
ltoes -22.2268
1841
root 0.609244 17.7981 2.83736 -498.629 147.563 -534.568
lowerback 10.4801 -7.11271 2.3455
upperback -4.03561 -8.74798 4.92385
thorax -9.76104 -4.19557 5.61954
lowerneck -5.58916 5.99408 2.06493
upperneck 4.4155 8.68126 -13.0474
head 2.91231 3.94661 -3.87592
rclavicle 7.6383e-014 8.44835e-015
rhumerus 12.7055 16.3485 -84.6199
rradius 139.367
rwrist 21.2306
rhand -1.47389 21.0457
rfingers 7.12502
rthumb 24.1779 -7.45041
lclavicle 7.6383e-014 8.44835e-015
lhumerus 6.32193 -9.17925 101.071
lradius 109.959
lwrist -0.121845
lhand 27.7642 48.8655
lfingers 7.12502
lthumb 51.6861 69.1558
rfemur -62.5725 25.0763 -15.4571
rtibia 23.447
rfoot -8.31966 8.70577
rtoes -10.9932
lfemur -11.7462 5.38855 -19.4273
ltibia 9.54166e-015
lfoot 8.16519 17.9409
ltoes -22.323
1842
root 0.598179 17.8004 2.84642 -498.476 147.46 -534.228
lowerback 10.5935 -7.06356 2.16375
upperback -4.05014 -8.71124 4.83598
thorax -9.83099 -4.16683 5.63542
lowerneck -5.56536 5.95538 1.98751
upperneck 4.53562 8.64747 -13.0302
head 2.93738 3.92486 -3.85973
rclavicle -4.2192e-014 2.96686e-014
rhumerus 12.9149 15.9521 -84.4957
rradius 139.134
rwrist 21.5231
rhand -1.29145 20.8746
rfingers 7.12502
rthumb 24.3528 -7.59817
lclavicle -4.2192e-014 2.96686e-014
lhumerus 6.12317 -9.35446 100.859
lradius 110.134
lwrist 0.536871
lhand 26.9258 49.2082
lfingers 7.12502
lthumb 50.9231 69.9324
rfemur -62.4303 24.9159 -15.524
rtibia 23.5322
rfoot -8.35592 8.69908
rtoes -11.3302
lfemur -11.8048 4.9638 -19.6066
ltibia 9.54166e-015
lfoot 8.34029 18.3694
ltoes -22.0293
1843
root 0.583446 17.8036 2.85626 -498.431 147.348 -534.038
lowerback 10.7457 -6.97561 2.04497
upperback -4.03577 -8.61065 4.7567
thorax -9.90449 -4.10997 5.61794
lowerneck -5.58702 5.89964 2.02533
upperneck 4.65196 8.58807 -13.0885
head 2.97539 3.8886 -3.88503
rclavicle -1.14798e-014 1.11816e-014
rhumerus 13.1311 15.4967 -84.4016
rradius 138.929
rwrist 21.9113
rhand -1.19736 20.7096
rfingers 7.12502
rthumb 24.443 -7.75099
lclavicle -1.14798e-014 1.11816e-014
lhumerus 6.04091 -9.43932 100.644
lradius 110.337
lwrist 1.10102
lhand 26.5724 49.4131
lfingers 7.12502
lthumb 50.6007 70.3146
rfemur -62.2993 24.7912 -15.4092
rtibia 23.635
rfoot -8.33698 8.76614
rtoes -11.3718
lfemur -11.8441 4.62126 -19.6663
ltibia 1.59028e-014
lfoot 8.52175 18.8862
ltoes -21.6668
1844
root 0.563724 17.8047 2.86654 -498.375 147.264 -533.906
lowerback 10.8814 -6.89187 1.8825
upperback -4.03398 -8.52138 4.70361
thorax -9.97107 -4.05554 5.65247
lowerneck -5.63312 5.86647 2.03
upperneck 4.76573 8.56229 -13.152
head 3.01824 3.86735 -3.90401
rclavicle -2.07978e-014 -2.06736e-014
rhumerus 13.2942 15.1464 -84.5102
rradius 138.612
rwrist 22.668
rhand -1.48168 20.6211
rfingers 7.12502
rthumb 24.1704 -7.87604
lclavicle -2.07978e-014 -2.06736e-014
lhumerus 6.00703 -9.21912 100.438
lradius 110.649
lwrist 1.63556
lhand 27.6955 50.0291
lfingers 7.12502
lthumb 51.6236 70.3557
rfemur -62.3013 24.7538 -15.4001
rtibia 23.7355
rfoot -8.21798 8.77742
rtoes -10.5227
lfemur -11.9331 4.33754 -19.6961
ltibia 2.54444e-014
lfoot 8.59829 19.4328
ltoes -21.1819
1845
root 0.545973 17.8082 2.8782 -498.34 147.222 -533.738
lowerback 11.0638 -6.80683 1.65316
upperback -4.05162 -8.44321 4.61048
thorax -10.0821 -4.00193 5.69122
lowerneck -5.57763 5.85077 2.06671
upperneck 4.81908 8.5422 -13.1316
head 3.02369 3.85858 -3.90599
rclavicle -5.74363e-014 -2.99171e-014
rhumerus 13.2982 14.9 -84.7215
rradius 138.174
rwrist 23.6844
rhand -2.3893 20.5337
rfingers 7.12502
rthumb 23.3 -8.07638
lclavicle -5.74363e-014 -2.99171e-014
lhumerus 5.91466 -9.12553 100.154
lradius 111.003
lwrist 2.38955
lhand 27.6639 50.7173
lfingers 7.12502
lthumb 51.595 71.0605
rfemur -62.2305 24.7246 -15.3778
rtibia 23.8221
rfoot -8.23487 8.79108
rtoes -10.595
lfemur -11.9558 4.06246 -19.7798
ltibia 2.22639e-014
lfoot 8.48692 19.9959
ltoes -20.0421
1846
root 0.530661 17.8121 2.8913 -498.231 147.059 -533.659
lowerback 11.0536 -6.69741 1.60602
upperback -4.06132 -8.31307 4.51535
thorax -10.1032 -3.93882 5.59009
lowerneck -5.63905 5.79486 2.21478
upperneck 4.90955 8.46658 -13.1236
head 3.06055 3.81812 -3.92921
rclavicle -5.24419e-014 3.37064e-014
rhumerus 13.3646 14.5726 -84.8693
rradius 137.689
rwrist 24.4079
rhand -3.23477 20.3919
rfingers 7.12502
rthumb 22.4886 -8.31859
lclavicle -5.24419e-014 3.37064e-014
lhumerus 5.86026 -9.24514 99.8918
lradius 111.323
lwrist 2.93325
lhand 27.0882 50.8991
lfingers 7.12502
lthumb 51.0711 71.5407
rfemur -62.2686 24.6695 -15.32
rtibia 23.9245
rfoot -8.25887 8.67516
rtoes -11.1846
lfemur -12.1263 3.74547 -19.7404
ltibia -3.18055e-015
lfoot 8.55828 20.5766
ltoes -19.4564
1847
root 0.514229 17.815 2.90289 -497.974 146.728 -533.489
lowerback 10.9651 -6.62617 1.62477
upperback -4.10646 -8.2214 4.47487
thorax -10.1165 -3.89723 5.51174
lowerneck -5.82021 5.72667 2.27056
upperneck 5.10477 8.39778 -13.1428
head 3.14684 3.76958 -3.94118
rclavicle 1.77353e-014 2.37796e-014
rhumerus 13.3763 14.4564 -85.0567
rradius 137.216
rwrist 25.2584
rhand -4.01743 20.0687
rfingers 7.12502
rthumb 21.7372 -8.73077
lclavicle 1.77353e-014 2.37796e-014
lhumerus 5.92184 -9.18577 99.7909
lradius 111.441
lwrist 3.03073
lhand 27.9002 50.5964
lfingers 7.12502
lthumb 51.8096 70.8145
rfemur -62.3148 24.4266 -15.2259
rtibia 24.0531
rfoot -8.33546 8.54933
rtoes -11.9278
lfemur -12.4442 3.25212 -19.6643
ltibia 1.27222e-014
lfoot 8.76529 21.2038
ltoes -19.0411
1848
root 0.495668 17.8144 2.91809 -497.812 146.293 -533.357
lowerback 10.9643 -6.59979 1.63494
upperback -4.14121 -8.17998 4.5092
thorax -10.1539 -3.87518 5.53945
lowerneck -6.05039 5.68036 2.20587
upperneck 5.30714 8.36754 -13.1289
head 3.24034 3.73675 -3.92019
rclavicle -1.19022e-014 6.55989e-015
rhumerus 13.3582 14.7372 -85.3556
rradius 136.562
rwrist 26.5791
rhand -4.87578 19.5123
rfingers 7.12502
rthumb 20.9128 -9.38044
lclavicle -1.19022e-014 6.55989e-015
lhumerus 5.96804 -9.1587 99.7002
lradius 111.613
lwrist 3.15024
lhand 28.0098 50.5625
lfingers 7.12502
lthumb 51.9091 70.722
rfemur -62.293 24.2898 -15.0831
rtibia 24.1872
rfoot -8.45838 8.28208
rtoes -12.6859
lfemur -14.3403 2.71921 -19.7025
ltibia 3.01725
lfoot 7.79675 21.5271
ltoes -19.767
1849
root 0.481222 17.8132 2.92918 -497.59 145.722 -533.062
lowerback 10.9884 -6.61972 1.77758
upperback -4.16264 -8.18479 4.48302
thorax -10.2165 -3.88469 5.44194
lowerneck -6.23842 5.61084 2.14296
upperneck 5.4322 8.28807 -13.0135
head 3.29516 3.6883 -3.87366
rclavicle -2.13694e-015 -6.82825e-014
rhumerus 13.4916 14.5143 -85.461
rradius 135.886
rwrist 27.3538
rhand -5.43771 18.7393
rfingers 7.12502
rthumb 20.3728 -10.212
lclavicle -2.13694e-015 -6.82825e-014
lhumerus 6.07407 -9.36058 99.5396
lradius 111.789
lwrist 3.18843
lhand 27.3098 50.5364
lfingers 7.12502
lthumb 51.2728 71.0643
rfemur -62.1433 24.0438 -14.9531
rtibia 24.3362
rfoot -8.5522 7.96212
rtoes -13.1624
lfemur -15.5417 1.99167 -19.6343
ltibia 4.80772
lfoot 6.98923 22.1315
ltoes -19.2544
1850
root 0.475726 17.8169 2.92893 -497.049 144.833 -532.435
lowerback 10.86 -6.77413 2.23226
upperback -4.23438 -8.33393 4.39829
thorax -10.2926 -3.98628 5.12531
lowerneck -6.33308 5.54514 2.19133
upperneck 5.46614 8.19985 -12.9906
head 3.31511 3.64219 -3.87717
rclavicle 7.21588e-014 -7.05686e-015
rhumerus 13.7396 13.8337 -85.436
rradius 135.263
rwrist 27.3864
rhand -5.54008 17.5054
rfingers 7.12502
rthumb 20.2744 -11.4564
lclavicle 7.21588e-014 -7.05686e-015
lhumerus 6.17469 -9.5108 99.4698
lradius 111.958
lwrist 3.0879
lhand 27.1169 50.0487
lfingers 7.12502
lthumb 51.0972 70.6757
rfemur -61.8585 23.3957 -14.8261
rtibia 24.5117
rfoot -8.71403 7.59631
rtoes -13.7598
lfemur -16.6615 0.851419 -19.504
ltibia 5.97636
lfoot 6.81832 22.7026
ltoes -18.794
1851
root 0.442717 17.8154 2.9562 -497.032 144.578 -532.528
lowerback 10.7973 -6.5552 1.96822
upperback -4.1722 -8.08426 4.39879
thorax -10.1614 -3.85379 5.20354
lowerneck -6.47682 5.44231 2.29558
upperneck 5.49776 8.05609 -12.9601
head 3.34001 3.56846 -3.88976
rclavicle -1.42131e-014 2.64384e-014
rhumerus 13.9459 13.2356 -85.549
rradius 134.598
rwrist 27.5595
rhand -5.38488 16.127
rfingers 7.12502
rthumb 20.4236 -12.819
lclavicle -1.42131e-014 2.64384e-014
lhumerus 6.35632 -9.6971 99.3845
lradius 112.163
lwrist 3.12185
lhand 27.0103 49.7126
lfingers 7.12502
lthumb 51.0001 70.3939
rfemur -62.056 23.5866 -14.7543
rtibia 24.6748
rfoot -8.75327 7.2897
rtoes -13.7233
lfemur -17.3484 0.62499 -19.1916
ltibia 6.9499
lfoot 6.69132 23.1892
ltoes -18.7824
